<?xml version="1.0" encoding="UTF-8"?>
<svg id="_레이어_2" data-name="레이어 2" xmlns="http://www.w3.org/2000/svg" viewBox="0 0 83.09 95.6">
  <defs>
    <style>
      .cls-1 {
        fill: #fff;
      }
    </style>
  </defs>
  <g id="_레이어_1-2" data-name="레이어 1">
    <g>
      <rect class="cls-1" x="9.41" y="3.74" width="10.59" height="10.59" transform="translate(-2.09 13.05) rotate(-45)"/>
      <path class="cls-1" d="M83.02,18.56c-.22-.56-.88-.79-1.41-.52-4.65,2.07-12.25,1.44-10.95-5.4.3-1.75,1.08-3.61,1.99-5.15.39-.67.21-1.56-.47-2-.64-.42-1.52-.23-2.01.37-1.12,1.38-2.57,2.74-4.08,3.62-3.32,2.15-6.66.6-7.96-2.83-.71-1.69-1-3.73-.95-5.6.01-.54-.41-1-.95-1.03-.56-.04-1.04.39-1.08.95,0,.04,0,.08-.01.12-.02.32-.05.64-.09.96-.13,1.07-.33,2.15-.6,3.22-1.02,3.77-2.58,7.36-4.42,10.82-1.09.05-2.19.15-3.29.33.99.04,1.99.11,3,.22.07,0,.14.01.21.02,7.25.79,14.61,3.39,18.21,10.13.62,1.1,1.12,2.26,1.56,3.45.03.07.06.15.09.22.49,1.36.89,2.78,1.23,4.22-.01-1.77-.22-3.41-.6-4.94,2.52-2.84,5.24-5.48,8.3-7.69,1.21-.84,2.47-1.59,3.77-2.17,0,0,0,0,0,0h0s0,0,0,0c.49-.22.73-.8.52-1.3ZM70.31,29.28c-2.4-8.85-10.56-13.51-19.92-13.23,1.41-1.91,2.68-3.94,3.78-6.07.54-1.04,1.04-2.12,1.47-3.22,1.16,3.87,4.01,7.1,8.56,6.44,1.34-.25,2.56-.76,3.68-1.42-.49,2.59-.19,5.22,1.71,7.3,2.04,2.07,4.68,2.65,7.31,2.41-2.54,2.28-4.7,4.95-6.58,7.8Z"/>
      <polygon class="cls-1" points="63.86 15.6 63.98 17.99 66.27 17.26 66.14 14.87 63.86 15.6"/>
      <polygon class="cls-1" points="65.63 4.24 64.83 .93 61.83 2.55 62.63 5.87 65.63 4.24"/>
      <polygon class="cls-1" points="79.01 10.87 75.7 11.69 75.65 15.1 78.96 14.28 79.01 10.87"/>
      <path class="cls-1" d="M81.31,80.74c-.43-4-3.88-7.09-8.04-6.89-3.97.19-7.23,3.52-7.35,7.49-.13,4.37,3.38,7.96,7.72,7.96.7,0,1.38-.1,2.03-.28-.75,1.36-1.89,2.5-3.47,3.22-4.07,2.1-9.36.51-11.21-3.89-1.09-2.1-1.32-4.64-1.34-6.98-.43-6.01.02-13.72-1.08-20.68,6.69-4.5,10.86-12.46,9.93-21.32-1.1-10.48-9.52-18.95-20-20.11-13.7-1.51-25.3,9.17-25.3,22.57,0,2.18.31,4.29.89,6.29-1.79,1.47-3.32,3.23-4.6,5.16v-11.45c0-8.39,3.88-15.86,9.93-20.75v-1.96H0v1.96c6.06,4.89,9.93,12.36,9.93,20.75v31.05c0,8.39-3.88,15.86-9.93,20.75v1.96h29.41v-1.96c-6.06-4.89-9.93-12.36-9.93-20.75v-3.98c0-3.65.63-7.3,2.11-10.64,1.02-2.31,2.36-4.43,4.04-6.22,3.74,7.41,11.42,12.49,20.28,12.49,3.17,0,6.18-.65,8.92-1.82-.92-4.54-2.11-7.39-3.45-9.15-1.66.78-3.51,1.22-5.47,1.22-4.11,0-7.76-1.91-10.14-4.89-.7-.88-1.29-1.84-1.74-2.88-.45-1.03-.76-2.13-.93-3.27-.09-.63-.16-1.26-.16-1.92,0-5.57,3.5-10.67,8.82-12.32,8.93-2.78,17.12,3.82,17.12,12.32,0,3.49-1.38,6.65-3.62,8.98-1.29-2.13-3-3.96-5.26-5.35-3.76-2.31-8.91-2.93-13.81-2.29.06.86.24,2.03.69,3.25,5.25-.81,11.06,0,14.85,3.69.53.52,1.08,1.1,1.47,1.74.45.74.99,1.49,1.33,2.29.34.78.69,1.56.97,2.36.57,1.63.97,3.32,1.27,5.02.01.09.03.17.04.26.11.66.2,1.32.28,1.99.41,3.37.5,6.81.68,10.14.14,3.11.16,6.29.24,9.42.17,4.67,2.39,9.79,7.02,11.58,6.87,2.81,17.33-3.02,16.33-13.77-.01-.13-.02-.26-.04-.38Z"/>
    </g>
  </g>
</svg>