<?xml version="1.0" encoding="UTF-8"?>
<svg id="_레이어_2" data-name="레이어 2" xmlns="http://www.w3.org/2000/svg" viewBox="0 0 230.95 60.08">
  <defs>
    <style>
      .cls-1 {
        fill: #fff;
      }
    </style>
  </defs>
  <g id="_레이어_1-2" data-name="레이어 1">
    <g>
      <g>
        <path class="cls-1" d="M58.7,45.32v-.34l.72-.24c.46-.16.76-.37.89-.63.14-.26.21-.63.21-1.12v-17.95c0-.46-.06-.82-.19-1.08-.13-.26-.41-.48-.84-.63l-.79-.31v-.34h9.82c2.7,0,4.77.51,6.21,1.53,1.44,1.02,2.16,2.43,2.16,4.24,0,1.01-.38,2.01-1.13,3.02-.75,1.01-1.95,1.79-3.57,2.33l4.77,9.47c.21.39.44.7.7.94.26.24.61.45,1.05.64l.45.17v.31h-6.14l-5.08-10.81h-2.33v8.48c0,.44.07.79.21,1.06.14.28.42.48.86.62l.82.31v.34h-8.79ZM65.6,33.82h1.65c1.65,0,2.84-.44,3.57-1.32.73-.88,1.1-2.19,1.1-3.93s-.34-3.07-1.03-3.93c-.69-.86-1.84-1.29-3.47-1.29h-1.82v10.47Z"/>
        <path class="cls-1" d="M80.25,45.32v-.34l.69-.27c.46-.16.76-.38.91-.65.15-.27.22-.64.22-1.1v-17.92c0-.46-.07-.82-.21-1.1-.14-.27-.45-.49-.93-.65l-.69-.27v-.34h8.82v.34l-.69.27c-.46.16-.76.38-.91.65s-.22.64-.22,1.1v17.92c0,.46.07.82.22,1.08s.45.49.91.67l.69.27v.34h-8.82Z"/>
        <path class="cls-1" d="M100.75,45.93c-1.46,0-2.85-.26-4.15-.79l-1.51,2.13c1.49.37,3.19.76,5.1,1.18,1.91.42,3.79.83,5.65,1.22.89.18,1.56.27,2.01.26.45-.01.85-.13,1.22-.36l.93-.58.27.38-1.75,1.89c-.5.53-1,.96-1.48,1.29-.48.33-1.02.5-1.61.5-.48,0-1.17-.07-2.06-.22-.89-.15-1.89-.33-2.99-.55-1.1-.22-2.2-.45-3.3-.69-1.1-.24-2.09-.45-2.99-.63-.37-.09-.7-.11-1-.05-.3.06-.58.23-.86.53l-.41.41-.41-.31,4.33-6.8c-1.67-.85-3.06-2.17-4.15-3.96s-1.65-4.06-1.65-6.78c0-1.97.3-3.7.89-5.18.6-1.49,1.41-2.73,2.44-3.72,1.03-1,2.19-1.75,3.48-2.27,1.29-.51,2.63-.77,4-.77s2.74.25,4.03.74c1.29.49,2.45,1.24,3.47,2.23,1.02,1,1.83,2.24,2.42,3.74.6,1.5.89,3.24.89,5.24s-.3,3.67-.89,5.17c-.6,1.5-1.4,2.75-2.42,3.74-1.02,1-2.17,1.75-3.47,2.27-1.29.51-2.64.77-4.03.77ZM100.75,45.21c1.26,0,2.28-.34,3.06-1.01.78-.67,1.34-1.83,1.7-3.47.35-1.64.53-3.88.53-6.75s-.18-5.14-.53-6.78c-.35-1.64-.92-2.79-1.7-3.47-.78-.67-1.8-1.01-3.06-1.01s-2.24.34-3.02,1.01c-.78.68-1.34,1.83-1.7,3.47-.36,1.64-.53,3.9-.53,6.78s.18,5.11.53,6.75c.35,1.64.92,2.79,1.7,3.47.78.68,1.79,1.01,3.02,1.01Z"/>
        <path class="cls-1" d="M127.87,45.93c-1.26,0-2.54-.15-3.84-.46-1.31-.31-2.39-.72-3.26-1.22l.17-4.67h.34l1.06,2.23c.32.64.66,1.21,1.03,1.7.37.49.87.88,1.51,1.15.46.23.9.38,1.32.46.42.08.9.12,1.42.12,1.4,0,2.5-.38,3.31-1.13.81-.75,1.22-1.73,1.22-2.92,0-1.12-.27-2-.82-2.63-.55-.63-1.43-1.24-2.64-1.84l-1.41-.62c-1.97-.87-3.51-1.87-4.62-3s-1.66-2.64-1.66-4.51c0-1.35.35-2.52,1.05-3.5.7-.98,1.67-1.74,2.92-2.27,1.25-.53,2.71-.79,4.38-.79,1.21,0,2.36.16,3.45.48,1.09.32,2.03.76,2.83,1.3l-.21,4.12h-.34l-1.41-2.57c-.39-.8-.78-1.37-1.17-1.7-.39-.33-.84-.57-1.34-.7-.3-.09-.57-.15-.82-.19-.25-.03-.57-.05-.96-.05-1.17,0-2.15.34-2.95,1.01-.8.68-1.2,1.58-1.2,2.73s.31,2.1.93,2.8c.62.7,1.52,1.32,2.71,1.87l1.58.69c2.2.96,3.78,1.99,4.74,3.07.96,1.09,1.44,2.49,1.44,4.21,0,2.01-.76,3.66-2.28,4.93-1.52,1.27-3.68,1.91-6.47,1.91Z"/>
        <path class="cls-1" d="M146.99,45.83c-1.74,0-3.25-.36-4.53-1.08-1.28-.72-2.27-1.75-2.97-3.07-.7-1.33-1.05-2.88-1.05-4.67s.37-3.33,1.12-4.63c.74-1.3,1.76-2.31,3.06-3.02,1.29-.71,2.75-1.06,4.38-1.06s3.08.35,4.36,1.05c1.28.7,2.29,1.7,3.04,3,.74,1.3,1.12,2.86,1.12,4.67s-.35,3.37-1.05,4.69c-.7,1.32-1.68,2.33-2.95,3.06-1.27.72-2.78,1.08-4.51,1.08ZM146.99,45.15c.8,0,1.44-.23,1.92-.69.48-.46.83-1.27,1.05-2.44.22-1.17.33-2.81.33-4.94s-.11-3.81-.33-4.98c-.22-1.17-.57-1.98-1.05-2.44-.48-.46-1.12-.69-1.92-.69s-1.45.23-1.94.69c-.49.46-.85,1.27-1.06,2.44-.22,1.17-.33,2.83-.33,4.98s.11,3.78.33,4.94c.22,1.17.57,1.98,1.06,2.44.49.46,1.14.69,1.94.69Z"/>
        <path class="cls-1" d="M165.73,45.83c-1.56,0-2.97-.34-4.24-1.01-1.27-.67-2.28-1.66-3.02-2.95-.74-1.29-1.12-2.88-1.12-4.75s.41-3.44,1.22-4.75c.81-1.32,1.9-2.32,3.26-3.02,1.36-.7,2.85-1.05,4.48-1.05,1.33,0,2.45.22,3.36.65.91.44,1.61,1,2.09,1.7.48.7.72,1.42.72,2.18,0,.64-.2,1.14-.58,1.49-.39.36-.89.53-1.51.53-.66,0-1.2-.24-1.61-.72-.41-.48-.65-1.11-.72-1.89-.02-.5-.01-.93.03-1.29.05-.35.05-.71,0-1.08-.09-.39-.23-.65-.43-.77-.19-.13-.46-.19-.81-.19-1.4,0-2.48.61-3.24,1.82-.77,1.21-1.15,3.15-1.15,5.8,0,2.31.43,4.08,1.29,5.3.86,1.22,2.18,1.84,3.96,1.84,1.08,0,1.95-.19,2.61-.58.66-.39,1.3-.97,1.92-1.75l.34.27c-.57,1.35-1.45,2.39-2.64,3.12-1.19.73-2.6,1.1-4.22,1.1Z"/>
        <path class="cls-1" d="M174.24,45.32v-.34l.48-.14c.46-.14.77-.34.94-.62.17-.27.26-.64.26-1.1v-10.74c0-.48-.09-.84-.26-1.08-.17-.24-.49-.41-.94-.5l-.48-.1v-.34l6.28-2.03.34.34-.1,4.87v9.61c0,.46.09.82.26,1.1.17.27.47.48.91.62l.34.1v.34h-8.03ZM178.29,26.5c-.78,0-1.44-.25-1.97-.74-.54-.49-.81-1.12-.81-1.87s.27-1.41.81-1.89c.54-.48,1.2-.72,1.97-.72s1.43.24,1.96.72c.53.48.79,1.11.79,1.89s-.26,1.38-.79,1.87c-.53.49-1.18.74-1.96.74Z"/>
        <path class="cls-1" d="M192.4,28.29c1.49,0,2.76.3,3.81.91,1.05.61,1.86,1.43,2.42,2.47.56,1.04.84,2.23.84,3.55,0,.25-.01.51-.03.77-.02.26-.07.5-.14.7h-10.23c.02,2.47.46,4.25,1.32,5.34.86,1.09,2.13,1.63,3.83,1.63,1.14,0,2.07-.18,2.78-.55.71-.37,1.37-.9,1.99-1.61l.34.31c-.71,1.26-1.65,2.24-2.83,2.95-1.18.71-2.59,1.06-4.24,1.06s-3.07-.35-4.33-1.05c-1.26-.7-2.24-1.7-2.95-3-.71-1.3-1.06-2.86-1.06-4.67s.41-3.47,1.24-4.79c.82-1.32,1.88-2.32,3.18-3,1.29-.69,2.65-1.03,4.07-1.03ZM192.3,28.98c-.66,0-1.23.2-1.7.6-.47.4-.84,1.11-1.1,2.13-.26,1.02-.41,2.45-.43,4.31h5.87c.23-2.49.14-4.29-.27-5.39-.41-1.1-1.2-1.65-2.37-1.65Z"/>
        <path class="cls-1" d="M207.71,45.83c-1.47,0-2.6-.37-3.42-1.1-.81-.73-1.22-1.9-1.22-3.5v-11.74h-2.37v-.34l.82-.14c.71-.16,1.32-.39,1.84-.69.52-.3,1.02-.7,1.53-1.2l2.82-3.12h.34l-.1,4.81h3.84v.69h-3.88v12.36c0,.8.18,1.41.53,1.82.35.41.81.62,1.36.62.48,0,.9-.12,1.27-.36.37-.24.73-.57,1.1-.98l.34.34c-.46.78-1.09,1.4-1.89,1.85-.8.46-1.77.69-2.92.69Z"/>
        <path class="cls-1" d="M216.84,53.56c-.92,0-1.64-.23-2.18-.69-.54-.46-.81-1.04-.81-1.75,0-.64.23-1.16.69-1.55.46-.39.97-.58,1.54-.58s1.05.12,1.44.36c.39.24.73.59,1.03,1.05l.24.27c.5.69,1.01.67,1.51-.03.21-.34.44-.8.7-1.36.26-.56.57-1.31.91-2.25l-6.66-15.93c-.16-.43-.33-.78-.51-1.05-.18-.26-.48-.49-.89-.67l-.62-.24v-.34h8.55v.31l-.69.27c-.5.16-.76.42-.77.77-.01.35.07.8.26,1.32l3.57,9.27,3.4-9.37c.18-.53.25-.97.21-1.32-.05-.35-.33-.6-.86-.74l-.72-.17v-.34h4.77v.34l-.76.24c-.53.16-.89.39-1.1.69-.21.3-.4.71-.58,1.24l-5.53,15.07c-.89,2.4-1.79,4.2-2.68,5.39-.89,1.19-2.05,1.79-3.47,1.79Z"/>
      </g>
      <g>
        <rect class="cls-1" x="5.91" y="2.35" width="6.66" height="6.66" transform="translate(-1.31 8.2) rotate(-45)"/>
        <path class="cls-1" d="M52.18,11.66c-.14-.35-.55-.5-.89-.33-2.92,1.3-7.7.91-6.88-3.4.19-1.1.68-2.27,1.25-3.24.25-.42.13-.98-.3-1.26-.4-.26-.96-.14-1.26.23-.7.87-1.61,1.72-2.56,2.28-2.09,1.35-4.18.38-5.01-1.78-.45-1.06-.63-2.35-.6-3.52,0-.34-.26-.63-.6-.65-.35-.02-.66.24-.68.6,0,.02,0,.05,0,.07-.01.2-.03.4-.06.61-.08.67-.21,1.35-.38,2.02-.64,2.37-1.62,4.62-2.78,6.8-.68.03-1.37.1-2.07.21.62.03,1.25.07,1.88.14.04,0,.09,0,.13.01,4.56.49,9.18,2.13,11.45,6.37.39.69.71,1.42.98,2.17.02.05.04.09.05.14.31.86.56,1.75.77,2.65,0-1.11-.14-2.14-.38-3.1,1.58-1.78,3.29-3.44,5.22-4.83.76-.53,1.55-1,2.37-1.37,0,0,0,0,0,0h0s0,0,0,0c.31-.14.46-.5.33-.82ZM44.19,18.41c-1.51-5.56-6.63-8.49-12.52-8.32.89-1.2,1.68-2.48,2.38-3.81.34-.66.65-1.33.93-2.03.73,2.43,2.52,4.46,5.38,4.05.84-.16,1.61-.48,2.31-.89-.31,1.63-.12,3.28,1.07,4.59,1.29,1.3,2.94,1.67,4.59,1.52-1.6,1.43-2.95,3.11-4.14,4.9Z"/>
        <polygon class="cls-1" points="40.14 9.8 40.21 11.31 41.65 10.85 41.57 9.34 40.14 9.8"/>
        <polygon class="cls-1" points="41.25 2.67 40.75 .58 38.86 1.6 39.37 3.69 41.25 2.67"/>
        <polygon class="cls-1" points="49.66 6.83 47.58 7.35 47.54 9.49 49.63 8.98 49.66 6.83"/>
        <path class="cls-1" d="M51.1,50.75c-.27-2.51-2.44-4.45-5.05-4.33-2.49.12-4.55,2.21-4.62,4.71-.08,2.75,2.12,5,4.85,5,.44,0,.87-.06,1.28-.18-.47.85-1.19,1.57-2.18,2.02-2.56,1.32-5.88.32-7.05-2.44-.69-1.32-.83-2.92-.84-4.39-.27-3.78.01-8.62-.68-13,4.21-2.83,6.83-7.83,6.24-13.4-.69-6.59-5.98-11.91-12.57-12.64-8.61-.95-15.9,5.77-15.9,14.19,0,1.37.2,2.7.56,3.95-1.13.92-2.08,2.03-2.89,3.24v-7.2c0-5.27,2.44-9.97,6.24-13.04v-1.23H0v1.23c3.81,3.07,6.24,7.77,6.24,13.04v19.52c0,5.27-2.44,9.97-6.24,13.04v1.23h18.48v-1.23c-3.81-3.07-6.24-7.77-6.24-13.04v-2.5c0-2.29.4-4.59,1.32-6.69.64-1.45,1.48-2.78,2.54-3.91,2.35,4.66,7.18,7.85,12.75,7.85,1.99,0,3.89-.41,5.61-1.14-.58-2.86-1.33-4.65-2.17-5.75-1.05.49-2.21.77-3.44.77-2.58,0-4.88-1.2-6.37-3.08-.44-.55-.81-1.16-1.09-1.81-.28-.65-.48-1.34-.59-2.06-.06-.39-.1-.79-.1-1.21,0-3.5,2.2-6.7,5.54-7.75,5.61-1.75,10.76,2.4,10.76,7.75,0,2.19-.87,4.18-2.28,5.64-.81-1.34-1.88-2.49-3.31-3.36-2.36-1.45-5.6-1.84-8.68-1.44.04.54.15,1.28.43,2.04,3.3-.51,6.95,0,9.33,2.32.34.33.68.69.92,1.09.28.47.62.94.83,1.44.21.49.43.98.61,1.48.36,1.02.61,2.08.8,3.15,0,.05.02.11.03.16.07.41.13.83.18,1.25.25,2.12.31,4.28.43,6.37.09,1.95.1,3.96.15,5.92.11,2.94,1.5,6.15,4.41,7.28,4.32,1.76,10.89-1.9,10.27-8.65,0-.08-.01-.16-.03-.24Z"/>
      </g>
    </g>
  </g>
</svg>