<?xml version="1.0" encoding="UTF-8"?>
<svg id="_레이어_2" data-name="레이어 2" xmlns="http://www.w3.org/2000/svg" viewBox="0 0 163.58 134.8">
  <defs>
    <style>
      .cls-1 {
        fill: #fff;
      }
    </style>
  </defs>
  <g id="_레이어_1-2" data-name="레이어 1">
    <g>
      <g>
        <path class="cls-1" d="M0,126.98v-.33l.68-.23c.43-.15.72-.35.85-.6.13-.25.2-.6.2-1.06v-17.05c0-.43-.06-.78-.18-1.03-.12-.25-.39-.45-.8-.6l-.75-.29v-.33h9.32c2.56,0,4.53.48,5.9,1.45,1.37.97,2.05,2.31,2.05,4.03,0,.96-.36,1.91-1.08,2.87-.72.96-1.85,1.7-3.39,2.22l4.53,9c.2.37.42.67.67.9.25.23.58.43.99.6l.42.16v.29h-5.83l-4.82-10.27h-2.22v8.05c0,.41.07.75.2,1.01.13.26.4.46.82.59l.78.29v.33H0ZM6.55,116.06h1.56c1.56,0,2.69-.42,3.39-1.26.7-.84,1.04-2.08,1.04-3.73s-.33-2.92-.98-3.73c-.65-.81-1.75-1.22-3.29-1.22h-1.73v9.94Z"/>
        <path class="cls-1" d="M20.47,126.98v-.33l.65-.26c.43-.15.72-.36.86-.62.14-.26.21-.61.21-1.04v-17.02c0-.43-.07-.78-.2-1.04-.13-.26-.42-.47-.88-.62l-.65-.26v-.33h8.38v.33l-.65.26c-.44.15-.72.36-.86.62-.14.26-.21.61-.21,1.04v17.02c0,.44.07.78.21,1.03.14.25.43.46.86.64l.65.26v.33h-8.38Z"/>
        <path class="cls-1" d="M39.93,127.56c-1.39,0-2.71-.25-3.94-.75l-1.43,2.02c1.41.35,3.03.72,4.84,1.12,1.81.4,3.6.79,5.36,1.16.85.17,1.48.25,1.91.24.42-.01.81-.12,1.16-.34l.88-.55.26.36-1.66,1.79c-.48.5-.95.91-1.4,1.22-.46.31-.97.47-1.53.47-.46,0-1.11-.07-1.96-.21-.85-.14-1.79-.32-2.84-.52-1.04-.21-2.09-.42-3.13-.65-1.04-.23-1.99-.43-2.84-.6-.35-.09-.66-.1-.95-.05-.28.05-.55.22-.82.5l-.39.39-.39-.29,4.11-6.45c-1.59-.8-2.9-2.06-3.94-3.76-1.04-1.71-1.56-3.85-1.56-6.44,0-1.87.28-3.51.85-4.92.57-1.41,1.34-2.59,2.31-3.54.98-.94,2.08-1.66,3.31-2.15,1.23-.49,2.49-.73,3.8-.73s2.6.23,3.83.7c1.23.47,2.33,1.17,3.29,2.12.97.95,1.73,2.13,2.3,3.55.57,1.42.85,3.08.85,4.97s-.28,3.48-.85,4.91c-.57,1.42-1.33,2.61-2.3,3.55-.97.95-2.06,1.66-3.29,2.15-1.23.49-2.51.73-3.83.73ZM39.93,126.88c1.19,0,2.16-.32,2.9-.96.74-.64,1.28-1.74,1.61-3.29s.51-3.69.51-6.41-.17-4.88-.51-6.44c-.34-1.55-.88-2.65-1.61-3.29-.74-.64-1.71-.96-2.9-.96s-2.13.32-2.87.96c-.74.64-1.28,1.74-1.61,3.29-.34,1.55-.51,3.7-.51,6.44s.17,4.85.51,6.41c.34,1.55.87,2.65,1.61,3.29.74.64,1.7.96,2.87.96Z"/>
        <path class="cls-1" d="M65.68,127.56c-1.2,0-2.41-.15-3.65-.44-1.24-.29-2.27-.68-3.1-1.16l.16-4.43h.33l1.01,2.12c.3.61.63,1.15.98,1.61.35.47.83.83,1.43,1.09.43.22.85.36,1.26.44.4.08.85.11,1.35.11,1.33,0,2.37-.36,3.15-1.08.77-.72,1.16-1.64,1.16-2.77,0-1.06-.26-1.9-.78-2.49-.52-.6-1.36-1.18-2.51-1.74l-1.34-.59c-1.87-.83-3.33-1.78-4.38-2.85-1.05-1.08-1.58-2.5-1.58-4.29,0-1.28.33-2.39.99-3.33.66-.93,1.59-1.65,2.77-2.15,1.18-.5,2.57-.75,4.16-.75,1.15,0,2.24.15,3.28.46,1.03.3,1.93.72,2.69,1.24l-.2,3.91h-.33l-1.34-2.44c-.37-.76-.74-1.3-1.11-1.61-.37-.31-.79-.54-1.27-.67-.28-.09-.54-.15-.78-.18-.24-.03-.54-.05-.91-.05-1.11,0-2.04.32-2.8.96-.76.64-1.14,1.51-1.14,2.59s.29,1.99.88,2.66c.59.66,1.45,1.26,2.58,1.78l1.5.65c2.09.91,3.59,1.89,4.5,2.92.91,1.03,1.37,2.36,1.37,3.99,0,1.91-.72,3.47-2.17,4.68-1.45,1.21-3.49,1.81-6.15,1.81Z"/>
        <path class="cls-1" d="M83.84,127.47c-1.65,0-3.09-.34-4.3-1.03-1.22-.68-2.16-1.66-2.82-2.92-.66-1.26-.99-2.74-.99-4.43s.35-3.16,1.06-4.4c.71-1.24,1.67-2.2,2.9-2.87,1.23-.67,2.61-1.01,4.16-1.01s2.92.33,4.14.99c1.22.66,2.18,1.61,2.89,2.85.71,1.24,1.06,2.72,1.06,4.43s-.33,3.2-.99,4.45c-.66,1.25-1.6,2.22-2.8,2.9-1.21.68-2.64,1.03-4.29,1.03ZM83.84,126.81c.76,0,1.37-.22,1.83-.65.46-.43.79-1.21.99-2.31.21-1.11.31-2.67.31-4.69s-.1-3.62-.31-4.73c-.21-1.11-.54-1.88-.99-2.31-.46-.43-1.06-.65-1.83-.65s-1.38.22-1.84.65c-.47.44-.8,1.21-1.01,2.31-.21,1.11-.31,2.68-.31,4.73s.1,3.59.31,4.69c.21,1.11.54,1.88,1.01,2.31.47.43,1.08.65,1.84.65Z"/>
        <path class="cls-1" d="M101.64,127.47c-1.48,0-2.82-.32-4.03-.96-1.21-.64-2.16-1.58-2.87-2.8-.71-1.23-1.06-2.73-1.06-4.51s.39-3.27,1.16-4.52c.77-1.25,1.8-2.21,3.1-2.87,1.29-.66,2.71-.99,4.25-.99,1.26,0,2.33.21,3.2.62.87.41,1.53.95,1.99,1.61.46.66.68,1.35.68,2.07,0,.61-.19,1.08-.55,1.42-.37.34-.85.51-1.43.51-.63,0-1.14-.23-1.53-.68-.39-.46-.62-1.05-.69-1.79-.02-.48-.01-.89.03-1.22.04-.34.04-.68,0-1.03-.09-.37-.22-.61-.41-.73-.18-.12-.44-.18-.77-.18-1.33,0-2.35.58-3.08,1.73-.73,1.15-1.09,2.99-1.09,5.51,0,2.19.41,3.87,1.22,5.04.82,1.16,2.07,1.74,3.76,1.74,1.02,0,1.85-.18,2.48-.55.63-.37,1.24-.92,1.83-1.66l.33.26c-.54,1.28-1.38,2.27-2.51,2.97-1.13.7-2.47,1.04-4.01,1.04Z"/>
        <path class="cls-1" d="M109.72,126.98v-.33l.46-.13c.43-.13.73-.33.9-.59.16-.26.24-.61.24-1.04v-10.2c0-.46-.08-.8-.24-1.03-.16-.23-.46-.39-.9-.47l-.46-.1v-.33l5.97-1.92.33.33-.1,4.63v9.13c0,.43.08.78.24,1.04.16.26.45.46.86.59l.33.1v.33h-7.63ZM113.57,109.11c-.74,0-1.36-.23-1.87-.7-.51-.47-.77-1.06-.77-1.78s.26-1.34.77-1.79c.51-.46,1.14-.68,1.87-.68s1.36.23,1.86.68c.5.46.75,1.05.75,1.79s-.25,1.31-.75,1.78c-.5.47-1.12.7-1.86.7Z"/>
        <path class="cls-1" d="M126.97,110.81c1.41,0,2.62.29,3.62.86,1,.58,1.76,1.36,2.3,2.35.53.99.8,2.11.8,3.37,0,.24-.01.48-.03.73-.02.25-.06.47-.13.67h-9.71c.02,2.35.44,4.04,1.26,5.07.81,1.03,2.03,1.55,3.63,1.55,1.09,0,1.97-.17,2.64-.52.67-.35,1.3-.86,1.89-1.53l.33.29c-.67,1.2-1.57,2.13-2.69,2.8s-2.46,1.01-4.03,1.01-2.91-.33-4.11-.99c-1.2-.66-2.13-1.61-2.8-2.85-.67-1.24-1.01-2.72-1.01-4.43s.39-3.3,1.17-4.55c.78-1.25,1.79-2.2,3.02-2.85,1.23-.65,2.52-.98,3.86-.98ZM126.87,111.46c-.63,0-1.17.19-1.61.57-.45.38-.79,1.05-1.04,2.02-.25.97-.39,2.33-.41,4.09h5.57c.22-2.37.13-4.07-.26-5.12-.39-1.04-1.14-1.56-2.25-1.56Z"/>
        <path class="cls-1" d="M141.51,127.47c-1.39,0-2.47-.35-3.24-1.04s-1.16-1.8-1.16-3.33v-11.15h-2.25v-.33l.78-.13c.67-.15,1.26-.37,1.74-.65.49-.28.97-.66,1.45-1.14l2.67-2.97h.33l-.1,4.56h3.65v.65h-3.68v11.73c0,.76.17,1.34.5,1.73.34.39.77.59,1.29.59.46,0,.86-.11,1.21-.34.35-.23.7-.54,1.04-.93l.33.33c-.44.74-1.03,1.33-1.79,1.76-.76.43-1.68.65-2.77.65Z"/>
        <path class="cls-1" d="M150.18,134.8c-.87,0-1.56-.22-2.07-.65-.51-.44-.77-.99-.77-1.66,0-.61.22-1.1.65-1.47.43-.37.92-.55,1.47-.55s1,.11,1.37.34c.37.23.7.56.98.99l.23.26c.48.65.96.64,1.43-.03.2-.33.42-.76.67-1.29.25-.53.54-1.24.86-2.13l-6.32-15.13c-.15-.41-.32-.74-.49-.99-.17-.25-.46-.46-.85-.64l-.59-.23v-.33h8.12v.29l-.65.26c-.48.15-.72.4-.73.73-.01.34.07.76.24,1.26l3.39,8.8,3.23-8.9c.17-.5.24-.92.2-1.26-.04-.34-.32-.57-.82-.7l-.68-.16v-.33h4.53v.33l-.72.23c-.5.15-.85.37-1.04.65-.2.28-.38.67-.55,1.17l-5.25,14.31c-.85,2.28-1.7,3.99-2.54,5.12s-1.95,1.7-3.29,1.7Z"/>
      </g>
      <g>
        <rect class="cls-1" x="50.49" y="3.74" width="10.59" height="10.59" transform="translate(9.95 42.09) rotate(-45)"/>
        <path class="cls-1" d="M124.1,18.56c-.22-.56-.88-.79-1.41-.52-4.65,2.07-12.25,1.44-10.95-5.4.3-1.75,1.08-3.61,1.99-5.15.39-.67.21-1.56-.47-2-.64-.42-1.52-.23-2.01.37-1.12,1.38-2.57,2.74-4.08,3.62-3.32,2.15-6.66.6-7.96-2.83-.71-1.69-1-3.73-.95-5.6.01-.54-.41-1-.95-1.03-.56-.04-1.04.39-1.08.95,0,.04,0,.08-.01.12-.02.32-.05.64-.09.96-.13,1.07-.33,2.15-.6,3.22-1.02,3.77-2.58,7.36-4.42,10.82-1.09.05-2.19.15-3.29.33.99.04,1.99.11,3,.22.07,0,.14.01.21.02,7.25.79,14.61,3.39,18.21,10.13.62,1.1,1.12,2.26,1.56,3.45.03.07.06.15.09.22.49,1.36.89,2.78,1.23,4.22-.01-1.77-.22-3.41-.6-4.94,2.52-2.84,5.24-5.48,8.3-7.69,1.21-.84,2.47-1.59,3.77-2.17,0,0,0,0,0,0h0s0,0,0,0c.49-.22.73-.8.52-1.3ZM111.39,29.28c-2.4-8.85-10.56-13.51-19.92-13.23,1.41-1.91,2.68-3.94,3.78-6.07.54-1.04,1.04-2.12,1.47-3.22,1.16,3.87,4.01,7.1,8.56,6.44,1.34-.25,2.56-.76,3.68-1.42-.49,2.59-.19,5.22,1.71,7.3,2.04,2.07,4.68,2.65,7.31,2.41-2.54,2.28-4.7,4.95-6.58,7.8Z"/>
        <polygon class="cls-1" points="104.94 15.6 105.06 17.99 107.35 17.26 107.22 14.87 104.94 15.6"/>
        <polygon class="cls-1" points="106.71 4.24 105.91 .93 102.91 2.55 103.71 5.87 106.71 4.24"/>
        <polygon class="cls-1" points="120.09 10.87 116.78 11.69 116.73 15.1 120.04 14.28 120.09 10.87"/>
        <path class="cls-1" d="M122.39,80.74c-.43-4-3.88-7.09-8.04-6.89-3.97.19-7.23,3.52-7.35,7.49-.13,4.37,3.38,7.96,7.72,7.96.7,0,1.38-.1,2.03-.28-.75,1.36-1.89,2.5-3.47,3.22-4.07,2.1-9.36.51-11.21-3.89-1.09-2.1-1.32-4.64-1.34-6.98-.43-6.01.02-13.72-1.08-20.68,6.69-4.5,10.86-12.46,9.93-21.32-1.1-10.48-9.52-18.95-20-20.11-13.7-1.51-25.3,9.17-25.3,22.57,0,2.18.31,4.29.89,6.29-1.79,1.47-3.32,3.23-4.6,5.16v-11.45c0-8.39,3.88-15.86,9.93-20.75v-1.96h-29.41v1.96c6.06,4.89,9.93,12.36,9.93,20.75v31.05c0,8.39-3.88,15.86-9.93,20.75v1.96h29.41v-1.96c-6.06-4.89-9.93-12.36-9.93-20.75v-3.98c0-3.65.63-7.3,2.11-10.64,1.02-2.31,2.36-4.43,4.04-6.22,3.74,7.41,11.42,12.49,20.28,12.49,3.17,0,6.18-.65,8.92-1.82-.92-4.54-2.11-7.39-3.45-9.15-1.66.78-3.51,1.22-5.47,1.22-4.11,0-7.76-1.91-10.14-4.89-.7-.88-1.29-1.84-1.74-2.88-.45-1.03-.76-2.13-.93-3.27-.09-.63-.16-1.26-.16-1.92,0-5.57,3.5-10.67,8.82-12.32,8.93-2.78,17.12,3.82,17.12,12.32,0,3.49-1.38,6.65-3.62,8.98-1.29-2.13-3-3.96-5.26-5.35-3.76-2.31-8.91-2.93-13.81-2.29.06.86.24,2.03.69,3.25,5.25-.81,11.06,0,14.85,3.69.53.52,1.08,1.1,1.47,1.74.45.74.99,1.49,1.33,2.29.34.78.69,1.56.97,2.36.57,1.63.97,3.32,1.27,5.02.01.09.03.17.04.26.11.66.2,1.32.28,1.99.41,3.37.5,6.81.68,10.14.14,3.11.16,6.29.24,9.42.17,4.67,2.39,9.79,7.02,11.58,6.87,2.81,17.33-3.02,16.33-13.77-.01-.13-.02-.26-.04-.38Z"/>
      </g>
    </g>
  </g>
</svg>